<svg xmlns="http://www.w3.org/2000/svg" xmlns:xlink="http://www.w3.org/1999/xlink" width="255" zoomAndPan="magnify" viewBox="0 0 375 374.999991" height="70" preserveAspectRatio="xMidYMid meet" version="1.0"><defs><g/><clipPath id="2305d99775"><path d="M 113.875 118.585938 L 199.375 118.585938 L 199.375 225.835938 L 113.875 225.835938 Z M 113.875 118.585938 " clip-rule="nonzero"/></clipPath><clipPath id="52b8a31236"><path d="M 61.320312 48.144531 L 176.820312 48.144531 L 176.820312 189.144531 L 61.320312 189.144531 Z M 61.320312 48.144531 " clip-rule="nonzero"/></clipPath><clipPath id="c1d99193ab"><path d="M 113.875 138.003906 L 199.375 138.003906 L 199.375 206.253906 L 113.875 206.253906 Z M 113.875 138.003906 " clip-rule="nonzero"/></clipPath></defs><rect x="-37.5" width="450" fill="#ffffff" y="-37.499999" height="449.999989" fill-opacity="1"/><rect x="-37.5" width="450" fill="#ffffff" y="-37.499999" height="449.999989" fill-opacity="1"/><g clip-path="url(#2305d99775)"><path fill="#ffbd59" d="M 168.546875 124.039062 C 181.640625 124.039062 193.128906 133.039062 199.621094 146.605469 L 199.621094 139.855469 C 190.898438 126.929688 177.097656 118.59375 161.582031 118.59375 C 135.242188 118.59375 113.875 142.640625 113.875 172.300781 C 113.875 201.960938 135.242188 226.007812 161.582031 226.007812 C 177.097656 226.007812 190.898438 217.671875 199.621094 204.746094 L 199.621094 197.996094 C 193.128906 211.5625 181.640625 220.5625 168.546875 220.5625 C 148.292969 220.5625 131.855469 198.960938 131.855469 172.300781 C 131.855469 145.640625 148.273438 124.039062 168.546875 124.039062 Z M 168.546875 124.039062 " fill-opacity="1" fill-rule="nonzero"/></g><g clip-path="url(#52b8a31236)"><path fill="#004aad" d="M 137.863281 111.628906 L 130.191406 111.628906 C 147.726562 111.628906 161.917969 97.40625 161.917969 79.902344 C 161.917969 62.367188 147.726562 48.144531 130.191406 48.144531 L 61.34375 48.144531 L 61.34375 51.96875 L 75.621094 51.96875 L 75.621094 184.351562 L 61.34375 184.351562 L 61.34375 189.015625 L 137.863281 189.015625 C 159.222656 189.015625 176.558594 171.707031 176.558594 150.324219 C 176.53125 128.9375 159.222656 111.628906 137.863281 111.628906 Z M 97.765625 51.96875 L 114.316406 51.96875 C 129.742188 51.96875 142.25 64.472656 142.25 79.902344 C 142.25 95.328125 129.742188 107.832031 114.316406 107.832031 L 97.765625 107.832031 Z M 120.695312 184.351562 L 97.765625 184.351562 L 97.765625 116.265625 L 120.695312 116.265625 C 139.496094 116.265625 154.726562 131.523438 154.726562 150.324219 C 154.726562 169.121094 139.496094 184.351562 120.695312 184.351562 Z M 120.695312 184.351562 " fill-opacity="1" fill-rule="nonzero"/></g><g fill="#ffbd59" fill-opacity="1"><g transform="translate(197.312466, 182.054988)"><g><path d="M 0.828125 -1.328125 L 2.71875 -1.765625 L 2.71875 -13.546875 L 0.828125 -14 L 0.828125 -15.3125 L 7.5 -15.3125 C 9.5 -15.3125 10.96875 -14.992188 11.90625 -14.359375 C 12.851562 -13.734375 13.328125 -12.613281 13.328125 -11 C 13.328125 -9.96875 13.054688 -9.097656 12.515625 -8.390625 C 11.972656 -7.679688 11.207031 -7.144531 10.21875 -6.78125 L 13.140625 -1.71875 L 14.890625 -1.328125 L 14.890625 0 L 11.34375 0 C 10.976562 0 10.691406 -0.0507812 10.484375 -0.15625 C 10.285156 -0.269531 10.109375 -0.476562 9.953125 -0.78125 L 7.0625 -6.234375 L 6.078125 -6.234375 L 6.078125 -1.765625 L 7.96875 -1.328125 L 7.96875 0 L 0.828125 0 Z M 6.78125 -8.03125 C 7.757812 -8.03125 8.507812 -8.28125 9.03125 -8.78125 C 9.550781 -9.28125 9.8125 -10.019531 9.8125 -11 C 9.8125 -11.894531 9.632812 -12.535156 9.28125 -12.921875 C 8.925781 -13.316406 8.257812 -13.515625 7.28125 -13.515625 C 6.757812 -13.515625 6.359375 -13.484375 6.078125 -13.421875 L 6.078125 -8.03125 Z M 6.78125 -8.03125 "/></g></g></g><g fill="#ffbd59" fill-opacity="1"><g transform="translate(218.729202, 182.054988)"><g><path d="M -0.1875 -1.46875 L 1.375 -1.75 L 6.125 -15.484375 L 8.984375 -15.484375 L 14.109375 -1.75 L 15.75 -1.4375 L 15.75 0 L 8.484375 0 L 8.484375 -1.46875 L 10.359375 -1.75 L 9.546875 -4.25 L 4.75 -4.25 L 4.0625 -2.21875 L 3.90625 -1.71875 L 5.859375 -1.46875 L 5.859375 0 L -0.1875 0 Z M 8.984375 -6.140625 L 7.328125 -11.15625 L 7.25 -11.71875 L 7.140625 -11.71875 L 7.0625 -11.15625 L 5.390625 -6.140625 Z M 8.984375 -6.140625 "/></g></g></g><g fill="#ffbd59" fill-opacity="1"><g transform="translate(240.760485, 182.054988)"><g><path d="M 0.828125 0 L 0.828125 -1.328125 L 2.71875 -1.765625 L 2.71875 -13.5625 L 1.15625 -13.875 L 1.15625 -15.3125 L 6.125 -15.3125 L 12.34375 -5.515625 L 12.4375 -5.15625 L 12.53125 -5.15625 L 12.53125 -13.546875 L 10.640625 -13.96875 L 10.640625 -15.3125 L 16.765625 -15.3125 L 16.765625 -13.96875 L 14.875 -13.546875 L 14.875 0 L 11.96875 0 L 5.25 -10.21875 L 5.15625 -10.5625 L 5.0625 -10.5625 L 5.0625 -1.765625 L 6.953125 -1.328125 L 6.953125 0 Z M 0.828125 0 "/></g></g></g><g fill="#ffbd59" fill-opacity="1"><g transform="translate(264.588158, 182.054988)"><g><path d="M 0.828125 -1.328125 L 2.71875 -1.765625 L 2.71875 -13.546875 L 0.828125 -14 L 0.828125 -15.3125 L 12.578125 -15.3125 L 12.578125 -10.875 L 10.96875 -10.875 L 10.375 -13.515625 L 7.109375 -13.515625 L 6.078125 -13.359375 L 6.078125 -8.65625 L 8.484375 -8.65625 L 9 -10.28125 L 10.265625 -10.28125 L 10.265625 -5.0625 L 9 -5.0625 L 8.484375 -6.859375 L 6.078125 -6.859375 L 6.078125 -1.796875 L 10.609375 -1.796875 L 11.234375 -4.65625 L 12.796875 -4.65625 L 12.796875 0 L 0.828125 0 Z M 0.828125 -1.328125 "/></g></g></g><g fill="#ffbd59" fill-opacity="1"><g transform="translate(284.917602, 182.054988)"><g><path d="M 5.953125 0.40625 C 4.785156 0.40625 3.765625 0.273438 2.890625 0.015625 C 2.015625 -0.242188 1.359375 -0.507812 0.921875 -0.78125 L 0.921875 -4.984375 L 2.578125 -4.984375 L 3.078125 -2.546875 C 3.367188 -2.253906 3.78125 -2.007812 4.3125 -1.8125 C 4.851562 -1.625 5.378906 -1.53125 5.890625 -1.53125 C 6.898438 -1.53125 7.625 -1.71875 8.0625 -2.09375 C 8.5 -2.476562 8.71875 -2.976562 8.71875 -3.59375 C 8.71875 -3.988281 8.65625 -4.300781 8.53125 -4.53125 C 8.40625 -4.757812 8.140625 -4.988281 7.734375 -5.21875 C 7.335938 -5.457031 6.675781 -5.78125 5.75 -6.1875 L 5.0625 -6.484375 C 4.164062 -6.859375 3.441406 -7.207031 2.890625 -7.53125 C 2.335938 -7.863281 1.867188 -8.328125 1.484375 -8.921875 C 1.109375 -9.523438 0.921875 -10.296875 0.921875 -11.234375 C 0.921875 -12.109375 1.144531 -12.890625 1.59375 -13.578125 C 2.039062 -14.265625 2.6875 -14.796875 3.53125 -15.171875 C 4.375 -15.554688 5.359375 -15.75 6.484375 -15.75 C 7.285156 -15.75 8.113281 -15.679688 8.96875 -15.546875 C 9.832031 -15.421875 10.515625 -15.289062 11.015625 -15.15625 L 11.015625 -10.84375 L 9.390625 -10.84375 L 8.890625 -13.3125 C 8.160156 -13.613281 7.390625 -13.765625 6.578125 -13.765625 C 5.628906 -13.765625 4.960938 -13.609375 4.578125 -13.296875 C 4.203125 -12.992188 4.015625 -12.507812 4.015625 -11.84375 C 4.015625 -11.476562 4.109375 -11.171875 4.296875 -10.921875 C 4.492188 -10.679688 4.738281 -10.488281 5.03125 -10.34375 C 5.332031 -10.195312 5.773438 -10.003906 6.359375 -9.765625 C 6.472656 -9.734375 6.640625 -9.671875 6.859375 -9.578125 C 7.929688 -9.148438 8.800781 -8.734375 9.46875 -8.328125 C 10.132812 -7.929688 10.671875 -7.425781 11.078125 -6.8125 C 11.492188 -6.207031 11.703125 -5.472656 11.703125 -4.609375 C 11.703125 -2.828125 11.144531 -1.546875 10.03125 -0.765625 C 8.925781 0.015625 7.566406 0.40625 5.953125 0.40625 Z M 5.953125 0.40625 "/></g></g></g><g fill="#004aad" fill-opacity="1"><g transform="translate(93.974789, 269.21799)"><g><path d="M 6.890625 0.140625 C 4.828125 0.140625 3.300781 -0.394531 2.3125 -1.46875 C 1.320312 -2.539062 0.828125 -4.210938 0.828125 -6.484375 C 0.828125 -10.859375 2.878906 -13.046875 6.984375 -13.046875 C 7.597656 -13.046875 8.222656 -12.976562 8.859375 -12.84375 C 9.492188 -12.71875 9.992188 -12.550781 10.359375 -12.34375 C 10.671875 -12.15625 10.828125 -11.957031 10.828125 -11.75 C 10.828125 -11.582031 10.757812 -11.359375 10.625 -11.078125 C 10.488281 -10.804688 10.328125 -10.5625 10.140625 -10.34375 C 9.953125 -10.125 9.785156 -10.015625 9.640625 -10.015625 C 9.597656 -10.015625 9.445312 -10.070312 9.1875 -10.1875 C 8.9375 -10.300781 8.625 -10.398438 8.25 -10.484375 C 7.882812 -10.566406 7.441406 -10.609375 6.921875 -10.609375 C 5.847656 -10.609375 5.046875 -10.265625 4.515625 -9.578125 C 3.992188 -8.890625 3.734375 -7.851562 3.734375 -6.46875 C 3.734375 -3.664062 4.785156 -2.265625 6.890625 -2.265625 C 7.441406 -2.265625 7.921875 -2.316406 8.328125 -2.421875 C 8.734375 -2.535156 9.125 -2.679688 9.5 -2.859375 C 9.695312 -2.953125 9.832031 -3 9.90625 -3 C 10.09375 -3 10.269531 -2.894531 10.4375 -2.6875 C 10.601562 -2.476562 10.738281 -2.238281 10.84375 -1.96875 C 10.945312 -1.707031 11 -1.519531 11 -1.40625 C 11 -1.082031 10.785156 -0.796875 10.359375 -0.546875 C 9.953125 -0.316406 9.414062 -0.144531 8.75 -0.03125 C 8.082031 0.0820312 7.460938 0.140625 6.890625 0.140625 Z M 6.890625 0.140625 "/></g></g></g><g fill="#004aad" fill-opacity="1"><g transform="translate(105.370666, 269.21799)"><g><path d="M 8.5625 -15.421875 C 8.351562 -15.421875 8.132812 -15.472656 7.90625 -15.578125 C 7.6875 -15.679688 7.578125 -15.769531 7.578125 -15.84375 C 7.578125 -15.90625 7.628906 -15.984375 7.734375 -16.078125 C 7.835938 -16.171875 7.941406 -16.253906 8.046875 -16.328125 C 8.148438 -16.410156 8.242188 -16.484375 8.328125 -16.546875 C 8.648438 -16.816406 8.8125 -17.039062 8.8125 -17.21875 C 8.8125 -17.34375 8.75 -17.441406 8.625 -17.515625 C 8.507812 -17.585938 8.375 -17.625 8.21875 -17.625 C 8.0625 -17.625 7.90625 -17.585938 7.75 -17.515625 C 7.59375 -17.441406 7.488281 -17.40625 7.4375 -17.40625 C 7.363281 -17.40625 7.253906 -17.5 7.109375 -17.6875 C 6.960938 -17.882812 6.890625 -18.050781 6.890625 -18.1875 C 6.890625 -18.300781 7.054688 -18.421875 7.390625 -18.546875 C 7.722656 -18.679688 8.046875 -18.75 8.359375 -18.75 C 9.015625 -18.75 9.519531 -18.617188 9.875 -18.359375 C 10.226562 -18.109375 10.40625 -17.753906 10.40625 -17.296875 C 10.40625 -16.929688 10.191406 -16.546875 9.765625 -16.140625 C 9.554688 -15.941406 9.328125 -15.769531 9.078125 -15.625 C 8.835938 -15.488281 8.664062 -15.421875 8.5625 -15.421875 Z M 3.5 -13.796875 C 3.25 -13.796875 3.125 -13.859375 3.125 -13.984375 C 3.125 -14.054688 3.164062 -14.148438 3.25 -14.265625 L 4.4375 -16.140625 C 4.539062 -16.285156 4.671875 -16.378906 4.828125 -16.421875 C 4.992188 -16.460938 5.238281 -16.484375 5.5625 -16.484375 L 5.765625 -16.484375 C 6.085938 -16.484375 6.332031 -16.460938 6.5 -16.421875 C 6.664062 -16.378906 6.796875 -16.285156 6.890625 -16.140625 L 8.09375 -14.265625 C 8.164062 -14.148438 8.203125 -14.054688 8.203125 -13.984375 C 8.203125 -13.859375 8.078125 -13.796875 7.828125 -13.796875 L 7.421875 -13.796875 C 6.785156 -13.796875 6.367188 -13.941406 6.171875 -14.234375 L 5.65625 -14.984375 L 5.140625 -14.265625 C 5.015625 -14.078125 4.847656 -13.953125 4.640625 -13.890625 C 4.441406 -13.828125 4.195312 -13.796875 3.90625 -13.796875 Z M 1.125 0.03125 C 0.375 0.03125 0 -0.101562 0 -0.375 C 0 -0.414062 0.0234375 -0.523438 0.078125 -0.703125 L 4.125 -12.546875 C 4.226562 -12.804688 4.578125 -12.9375 5.171875 -12.9375 L 6.140625 -12.9375 C 6.753906 -12.9375 7.101562 -12.804688 7.1875 -12.546875 L 11.234375 -0.703125 C 11.273438 -0.578125 11.296875 -0.46875 11.296875 -0.375 C 11.296875 -0.101562 10.988281 0.03125 10.375 0.03125 L 9.5625 0.03125 C 8.957031 0.03125 8.613281 -0.09375 8.53125 -0.34375 L 7.796875 -2.59375 L 3.4375 -2.59375 L 2.703125 -0.34375 C 2.617188 -0.09375 2.335938 0.03125 1.859375 0.03125 Z M 7 -5.03125 L 5.953125 -8.3125 C 5.867188 -8.550781 5.773438 -8.941406 5.671875 -9.484375 L 5.59375 -9.484375 C 5.582031 -9.410156 5.554688 -9.25 5.515625 -9 C 5.472656 -8.75 5.410156 -8.519531 5.328125 -8.3125 L 4.234375 -5.03125 Z M 7 -5.03125 "/></g></g></g><g fill="#004aad" fill-opacity="1"><g transform="translate(116.656085, 269.21799)"><g><path d="M 6.5625 0.140625 C 4.863281 0.140625 3.546875 -0.242188 2.609375 -1.015625 C 1.679688 -1.796875 1.21875 -2.894531 1.21875 -4.3125 L 1.21875 -12.34375 C 1.21875 -12.738281 1.585938 -12.9375 2.328125 -12.9375 L 2.953125 -12.9375 C 3.679688 -12.9375 4.046875 -12.738281 4.046875 -12.34375 L 4.046875 -4.5 C 4.046875 -3.84375 4.28125 -3.304688 4.75 -2.890625 C 5.21875 -2.472656 5.820312 -2.265625 6.5625 -2.265625 C 7.289062 -2.265625 7.890625 -2.472656 8.359375 -2.890625 C 8.835938 -3.304688 9.078125 -3.84375 9.078125 -4.5 L 9.078125 -12.34375 C 9.078125 -12.738281 9.445312 -12.9375 10.1875 -12.9375 L 10.796875 -12.9375 C 11.535156 -12.9375 11.90625 -12.738281 11.90625 -12.34375 L 11.90625 -4.3125 C 11.90625 -2.894531 11.4375 -1.796875 10.5 -1.015625 C 9.5625 -0.242188 8.25 0.140625 6.5625 0.140625 Z M 6.5625 0.140625 "/></g></g></g><g fill="#004aad" fill-opacity="1"><g transform="translate(129.764112, 269.21799)"><g/></g></g><g fill="#004aad" fill-opacity="1"><g transform="translate(134.18255, 269.21799)"><g><path d="M 4.734375 0.03125 C 3.992188 0.03125 3.625 -0.160156 3.625 -0.546875 L 3.625 -10.484375 L 0.703125 -10.484375 C 0.503906 -10.484375 0.359375 -10.554688 0.265625 -10.703125 C 0.179688 -10.847656 0.140625 -11.082031 0.140625 -11.40625 L 0.140625 -11.96875 C 0.140625 -12.289062 0.179688 -12.523438 0.265625 -12.671875 C 0.359375 -12.816406 0.503906 -12.890625 0.703125 -12.890625 L 9.40625 -12.890625 C 9.601562 -12.890625 9.742188 -12.816406 9.828125 -12.671875 C 9.921875 -12.523438 9.96875 -12.289062 9.96875 -11.96875 L 9.96875 -11.40625 C 9.96875 -11.082031 9.921875 -10.847656 9.828125 -10.703125 C 9.742188 -10.554688 9.601562 -10.484375 9.40625 -10.484375 L 6.484375 -10.484375 L 6.484375 -0.546875 C 6.484375 -0.160156 6.113281 0.03125 5.375 0.03125 Z M 4.734375 0.03125 "/></g></g></g><g fill="#004aad" fill-opacity="1"><g transform="translate(144.289719, 269.21799)"><g><path d="M 2.375 0.03125 C 1.632812 0.03125 1.265625 -0.160156 1.265625 -0.546875 L 1.265625 -12.15625 C 1.265625 -12.414062 1.320312 -12.601562 1.4375 -12.71875 C 1.5625 -12.832031 1.753906 -12.890625 2.015625 -12.890625 L 5.59375 -12.890625 C 8.65625 -12.890625 10.1875 -11.738281 10.1875 -9.4375 C 10.1875 -8.75 9.992188 -8.148438 9.609375 -7.640625 C 9.222656 -7.128906 8.695312 -6.75 8.03125 -6.5 L 8.03125 -6.421875 C 8.257812 -6.335938 8.5 -6.132812 8.75 -5.8125 C 9 -5.488281 9.203125 -5.128906 9.359375 -4.734375 L 10.984375 -0.6875 C 11.046875 -0.519531 11.078125 -0.398438 11.078125 -0.328125 C 11.078125 -0.222656 10.984375 -0.132812 10.796875 -0.0625 C 10.609375 0 10.332031 0.03125 9.96875 0.03125 L 9.21875 0.03125 C 8.613281 0.03125 8.253906 -0.09375 8.140625 -0.34375 L 6.6875 -3.9375 C 6.476562 -4.34375 6.253906 -4.628906 6.015625 -4.796875 C 5.773438 -4.960938 5.378906 -5.046875 4.828125 -5.046875 L 4.109375 -5.046875 L 4.109375 -0.546875 C 4.109375 -0.160156 3.738281 0.03125 3 0.03125 Z M 5.859375 -7.5 C 6.234375 -7.5 6.5625 -7.648438 6.84375 -7.953125 C 7.132812 -8.265625 7.28125 -8.640625 7.28125 -9.078125 C 7.28125 -9.515625 7.140625 -9.859375 6.859375 -10.109375 C 6.585938 -10.359375 6.210938 -10.484375 5.734375 -10.484375 L 4.109375 -10.484375 L 4.109375 -7.5 Z M 5.859375 -7.5 "/></g></g></g><g fill="#004aad" fill-opacity="1"><g transform="translate(155.519909, 269.21799)"><g><path d="M 6.5625 0.140625 C 4.863281 0.140625 3.546875 -0.242188 2.609375 -1.015625 C 1.679688 -1.796875 1.21875 -2.894531 1.21875 -4.3125 L 1.21875 -12.34375 C 1.21875 -12.738281 1.585938 -12.9375 2.328125 -12.9375 L 2.953125 -12.9375 C 3.679688 -12.9375 4.046875 -12.738281 4.046875 -12.34375 L 4.046875 -4.5 C 4.046875 -3.84375 4.28125 -3.304688 4.75 -2.890625 C 5.21875 -2.472656 5.820312 -2.265625 6.5625 -2.265625 C 7.289062 -2.265625 7.890625 -2.472656 8.359375 -2.890625 C 8.835938 -3.304688 9.078125 -3.84375 9.078125 -4.5 L 9.078125 -12.34375 C 9.078125 -12.738281 9.445312 -12.9375 10.1875 -12.9375 L 10.796875 -12.9375 C 11.535156 -12.9375 11.90625 -12.738281 11.90625 -12.34375 L 11.90625 -4.3125 C 11.90625 -2.894531 11.4375 -1.796875 10.5 -1.015625 C 9.5625 -0.242188 8.25 0.140625 6.5625 0.140625 Z M 6.59375 3.765625 C 5.851562 3.765625 5.484375 3.566406 5.484375 3.171875 L 5.484375 2.0625 C 5.484375 1.664062 5.851562 1.46875 6.59375 1.46875 C 7.332031 1.46875 7.703125 1.664062 7.703125 2.0625 L 7.703125 3.171875 C 7.703125 3.566406 7.332031 3.765625 6.59375 3.765625 Z M 6.59375 3.765625 "/></g></g></g><g fill="#004aad" fill-opacity="1"><g transform="translate(168.627936, 269.21799)"><g><path d="M 6.890625 0.140625 C 4.828125 0.140625 3.300781 -0.394531 2.3125 -1.46875 C 1.320312 -2.539062 0.828125 -4.210938 0.828125 -6.484375 C 0.828125 -10.859375 2.878906 -13.046875 6.984375 -13.046875 C 7.597656 -13.046875 8.222656 -12.976562 8.859375 -12.84375 C 9.492188 -12.71875 9.992188 -12.550781 10.359375 -12.34375 C 10.671875 -12.15625 10.828125 -11.957031 10.828125 -11.75 C 10.828125 -11.582031 10.757812 -11.359375 10.625 -11.078125 C 10.488281 -10.804688 10.328125 -10.5625 10.140625 -10.34375 C 9.953125 -10.125 9.785156 -10.015625 9.640625 -10.015625 C 9.597656 -10.015625 9.445312 -10.070312 9.1875 -10.1875 C 8.9375 -10.300781 8.625 -10.398438 8.25 -10.484375 C 7.882812 -10.566406 7.441406 -10.609375 6.921875 -10.609375 C 5.847656 -10.609375 5.046875 -10.265625 4.515625 -9.578125 C 3.992188 -8.890625 3.734375 -7.851562 3.734375 -6.46875 C 3.734375 -3.664062 4.785156 -2.265625 6.890625 -2.265625 C 7.441406 -2.265625 7.921875 -2.316406 8.328125 -2.421875 C 8.734375 -2.535156 9.125 -2.679688 9.5 -2.859375 C 9.695312 -2.953125 9.832031 -3 9.90625 -3 C 10.09375 -3 10.269531 -2.894531 10.4375 -2.6875 C 10.601562 -2.476562 10.738281 -2.238281 10.84375 -1.96875 C 10.945312 -1.707031 11 -1.519531 11 -1.40625 C 11 -1.082031 10.785156 -0.796875 10.359375 -0.546875 C 9.953125 -0.316406 9.414062 -0.144531 8.75 -0.03125 C 8.082031 0.0820312 7.460938 0.140625 6.890625 0.140625 Z M 6.890625 0.140625 "/></g></g></g><g fill="#004aad" fill-opacity="1"><g transform="translate(180.023813, 269.21799)"><g/></g></g><g fill="#004aad" fill-opacity="1"><g transform="translate(184.442251, 269.21799)"><g><path d="M 2.140625 0 C 1.878906 0 1.691406 -0.0546875 1.578125 -0.171875 C 1.460938 -0.285156 1.40625 -0.472656 1.40625 -0.734375 L 1.40625 -12.15625 C 1.40625 -12.414062 1.460938 -12.601562 1.578125 -12.71875 C 1.691406 -12.832031 1.878906 -12.890625 2.140625 -12.890625 L 5.78125 -12.890625 C 7.28125 -12.890625 8.378906 -12.597656 9.078125 -12.015625 C 9.773438 -11.441406 10.125 -10.648438 10.125 -9.640625 C 10.125 -9.023438 9.9375 -8.460938 9.5625 -7.953125 C 9.195312 -7.441406 8.722656 -7.066406 8.140625 -6.828125 L 8.15625 -6.765625 C 8.882812 -6.617188 9.476562 -6.253906 9.9375 -5.671875 C 10.40625 -5.097656 10.640625 -4.453125 10.640625 -3.734375 C 10.640625 -2.535156 10.253906 -1.613281 9.484375 -0.96875 C 8.722656 -0.320312 7.578125 0 6.046875 0 Z M 5.515625 -7.75 C 6.046875 -7.75 6.460938 -7.878906 6.765625 -8.140625 C 7.066406 -8.398438 7.21875 -8.734375 7.21875 -9.140625 C 7.21875 -10.046875 6.660156 -10.5 5.546875 -10.5 L 4.234375 -10.5 L 4.234375 -7.75 Z M 6.046875 -2.40625 C 6.585938 -2.40625 7.003906 -2.535156 7.296875 -2.796875 C 7.585938 -3.054688 7.734375 -3.425781 7.734375 -3.90625 C 7.734375 -4.382812 7.5625 -4.742188 7.21875 -4.984375 C 6.875 -5.222656 6.382812 -5.34375 5.75 -5.34375 L 4.234375 -5.34375 L 4.234375 -2.40625 Z M 6.046875 -2.40625 "/></g></g></g><g fill="#004aad" fill-opacity="1"><g transform="translate(195.359467, 269.21799)"><g><path d="M 2.28125 0.0625 C 1.539062 0.0625 1.171875 -0.140625 1.171875 -0.546875 L 1.171875 -12.34375 C 1.171875 -12.75 1.539062 -12.953125 2.28125 -12.953125 L 2.921875 -12.953125 C 3.660156 -12.953125 4.03125 -12.75 4.03125 -12.34375 L 4.03125 -0.546875 C 4.03125 -0.140625 3.660156 0.0625 2.921875 0.0625 Z M 3.0625 -13.859375 C 2.664062 -13.859375 2.363281 -13.898438 2.15625 -13.984375 C 1.957031 -14.066406 1.796875 -14.175781 1.671875 -14.3125 C 1.472656 -14.539062 1.0625 -14.984375 0.4375 -15.640625 C 0.132812 -15.972656 -0.0507812 -16.1875 -0.125 -16.28125 C -0.195312 -16.375 -0.234375 -16.457031 -0.234375 -16.53125 C -0.234375 -16.625 -0.144531 -16.6875 0.03125 -16.71875 C 0.207031 -16.757812 0.484375 -16.78125 0.859375 -16.78125 C 1.722656 -16.78125 2.25 -16.617188 2.4375 -16.296875 C 2.457031 -16.242188 2.707031 -15.8125 3.1875 -15 C 3.320312 -14.78125 3.425781 -14.597656 3.5 -14.453125 C 3.582031 -14.304688 3.625 -14.203125 3.625 -14.140625 C 3.625 -14.035156 3.582031 -13.960938 3.5 -13.921875 C 3.425781 -13.878906 3.28125 -13.859375 3.0625 -13.859375 Z M 3.0625 -13.859375 "/></g></g></g><g fill="#004aad" fill-opacity="1"><g transform="translate(200.569539, 269.21799)"><g><path d="M 2.375 0.03125 C 1.632812 0.03125 1.265625 -0.160156 1.265625 -0.546875 L 1.265625 -12.34375 C 1.265625 -12.738281 1.632812 -12.9375 2.375 -12.9375 L 3.171875 -12.9375 C 3.460938 -12.9375 3.707031 -12.898438 3.90625 -12.828125 C 4.101562 -12.765625 4.265625 -12.632812 4.390625 -12.4375 L 8.53125 -6.046875 C 8.769531 -5.691406 8.988281 -5.328125 9.1875 -4.953125 L 9.265625 -4.96875 C 9.242188 -5.25 9.234375 -5.671875 9.234375 -6.234375 L 9.234375 -12.34375 C 9.234375 -12.738281 9.597656 -12.9375 10.328125 -12.9375 L 10.875 -12.9375 C 11.601562 -12.9375 11.96875 -12.738281 11.96875 -12.34375 L 11.96875 -0.546875 C 11.96875 -0.160156 11.601562 0.03125 10.875 0.03125 L 10.171875 0.03125 C 9.878906 0.03125 9.632812 0 9.4375 -0.0625 C 9.238281 -0.132812 9.078125 -0.265625 8.953125 -0.453125 L 4.71875 -6.9375 C 4.46875 -7.300781 4.242188 -7.664062 4.046875 -8.03125 L 3.984375 -8.015625 C 4.003906 -7.734375 4.015625 -7.316406 4.015625 -6.765625 L 4.015625 -0.546875 C 4.015625 -0.160156 3.644531 0.03125 2.90625 0.03125 Z M 2.375 0.03125 "/></g></g></g><g fill="#004aad" fill-opacity="1"><g transform="translate(213.806438, 269.21799)"><g><path d="M 2.5 0.03125 C 1.769531 0.03125 1.40625 -0.160156 1.40625 -0.546875 L 1.40625 -12.34375 C 1.40625 -12.738281 1.769531 -12.9375 2.5 -12.9375 L 3.15625 -12.9375 C 3.882812 -12.9375 4.25 -12.738281 4.25 -12.34375 L 4.25 -7.796875 L 9.234375 -7.796875 L 9.234375 -12.34375 C 9.234375 -12.738281 9.597656 -12.9375 10.328125 -12.9375 L 10.984375 -12.9375 C 11.710938 -12.9375 12.078125 -12.738281 12.078125 -12.34375 L 12.078125 -0.546875 C 12.078125 -0.160156 11.710938 0.03125 10.984375 0.03125 L 10.328125 0.03125 C 9.597656 0.03125 9.234375 -0.160156 9.234375 -0.546875 L 9.234375 -5.359375 L 4.25 -5.359375 L 4.25 -0.546875 C 4.25 -0.160156 3.882812 0.03125 3.15625 0.03125 Z M 2.5 0.03125 "/></g></g></g><g fill="#004aad" fill-opacity="1"><g transform="translate(227.30107, 269.21799)"><g/></g></g><g fill="#004aad" fill-opacity="1"><g transform="translate(231.719508, 269.21799)"><g><path d="M 6.890625 0.140625 C 4.828125 0.140625 3.300781 -0.394531 2.3125 -1.46875 C 1.320312 -2.539062 0.828125 -4.210938 0.828125 -6.484375 C 0.828125 -10.859375 2.878906 -13.046875 6.984375 -13.046875 C 7.597656 -13.046875 8.222656 -12.976562 8.859375 -12.84375 C 9.492188 -12.71875 9.992188 -12.550781 10.359375 -12.34375 C 10.671875 -12.15625 10.828125 -11.957031 10.828125 -11.75 C 10.828125 -11.582031 10.757812 -11.359375 10.625 -11.078125 C 10.488281 -10.804688 10.328125 -10.5625 10.140625 -10.34375 C 9.953125 -10.125 9.785156 -10.015625 9.640625 -10.015625 C 9.597656 -10.015625 9.445312 -10.070312 9.1875 -10.1875 C 8.9375 -10.300781 8.625 -10.398438 8.25 -10.484375 C 7.882812 -10.566406 7.441406 -10.609375 6.921875 -10.609375 C 5.847656 -10.609375 5.046875 -10.265625 4.515625 -9.578125 C 3.992188 -8.890625 3.734375 -7.851562 3.734375 -6.46875 C 3.734375 -3.664062 4.785156 -2.265625 6.890625 -2.265625 C 7.441406 -2.265625 7.921875 -2.316406 8.328125 -2.421875 C 8.734375 -2.535156 9.125 -2.679688 9.5 -2.859375 C 9.695312 -2.953125 9.832031 -3 9.90625 -3 C 10.09375 -3 10.269531 -2.894531 10.4375 -2.6875 C 10.601562 -2.476562 10.738281 -2.238281 10.84375 -1.96875 C 10.945312 -1.707031 11 -1.519531 11 -1.40625 C 11 -1.082031 10.785156 -0.796875 10.359375 -0.546875 C 9.953125 -0.316406 9.414062 -0.144531 8.75 -0.03125 C 8.082031 0.0820312 7.460938 0.140625 6.890625 0.140625 Z M 6.890625 0.140625 "/></g></g></g><g fill="#004aad" fill-opacity="1"><g transform="translate(243.115385, 269.21799)"><g><path d="M 2.5 0.03125 C 1.769531 0.03125 1.40625 -0.160156 1.40625 -0.546875 L 1.40625 -12.34375 C 1.40625 -12.738281 1.769531 -12.9375 2.5 -12.9375 L 3.15625 -12.9375 C 3.882812 -12.9375 4.25 -12.738281 4.25 -12.34375 L 4.25 -7.796875 L 9.234375 -7.796875 L 9.234375 -12.34375 C 9.234375 -12.738281 9.597656 -12.9375 10.328125 -12.9375 L 10.984375 -12.9375 C 11.710938 -12.9375 12.078125 -12.738281 12.078125 -12.34375 L 12.078125 -0.546875 C 12.078125 -0.160156 11.710938 0.03125 10.984375 0.03125 L 10.328125 0.03125 C 9.597656 0.03125 9.234375 -0.160156 9.234375 -0.546875 L 9.234375 -5.359375 L 4.25 -5.359375 L 4.25 -0.546875 C 4.25 -0.160156 3.882812 0.03125 3.15625 0.03125 Z M 2.5 0.03125 "/></g></g></g><g fill="#004aad" fill-opacity="1"><g transform="translate(256.610017, 269.21799)"><g><path d="M 1.125 0.03125 C 0.375 0.03125 0 -0.101562 0 -0.375 C 0 -0.414062 0.0234375 -0.523438 0.078125 -0.703125 L 4.125 -12.546875 C 4.226562 -12.804688 4.578125 -12.9375 5.171875 -12.9375 L 6.140625 -12.9375 C 6.753906 -12.9375 7.101562 -12.804688 7.1875 -12.546875 L 11.234375 -0.703125 C 11.273438 -0.578125 11.296875 -0.46875 11.296875 -0.375 C 11.296875 -0.101562 10.988281 0.03125 10.375 0.03125 L 9.5625 0.03125 C 8.957031 0.03125 8.613281 -0.09375 8.53125 -0.34375 L 7.796875 -2.59375 L 3.4375 -2.59375 L 2.703125 -0.34375 C 2.617188 -0.09375 2.335938 0.03125 1.859375 0.03125 Z M 7 -5.03125 L 5.953125 -8.3125 C 5.867188 -8.550781 5.773438 -8.941406 5.671875 -9.484375 L 5.59375 -9.484375 C 5.582031 -9.410156 5.554688 -9.25 5.515625 -9 C 5.472656 -8.75 5.410156 -8.519531 5.328125 -8.3125 L 4.234375 -5.03125 Z M 3.46875 -13.796875 C 3.226562 -13.796875 3.109375 -13.859375 3.109375 -13.984375 C 3.109375 -14.054688 3.144531 -14.148438 3.21875 -14.265625 L 4.421875 -16.140625 C 4.515625 -16.285156 4.644531 -16.378906 4.8125 -16.421875 C 4.976562 -16.472656 5.21875 -16.5 5.53125 -16.5 L 5.734375 -16.5 C 6.054688 -16.5 6.300781 -16.472656 6.46875 -16.421875 C 6.632812 -16.378906 6.765625 -16.285156 6.859375 -16.140625 L 8.0625 -14.265625 C 8.132812 -14.148438 8.171875 -14.054688 8.171875 -13.984375 C 8.171875 -13.859375 8.046875 -13.796875 7.796875 -13.796875 L 7.40625 -13.796875 C 6.757812 -13.796875 6.335938 -13.945312 6.140625 -14.25 L 5.625 -14.984375 L 5.109375 -14.265625 C 4.992188 -14.078125 4.832031 -13.953125 4.625 -13.890625 C 4.425781 -13.828125 4.175781 -13.796875 3.875 -13.796875 Z M 3.46875 -13.796875 "/></g></g></g><g fill="#004aad" fill-opacity="1"><g transform="translate(267.895436, 269.21799)"><g><path d="M 6.5625 0.140625 C 4.863281 0.140625 3.546875 -0.242188 2.609375 -1.015625 C 1.679688 -1.796875 1.21875 -2.894531 1.21875 -4.3125 L 1.21875 -12.34375 C 1.21875 -12.738281 1.585938 -12.9375 2.328125 -12.9375 L 2.953125 -12.9375 C 3.679688 -12.9375 4.046875 -12.738281 4.046875 -12.34375 L 4.046875 -4.5 C 4.046875 -3.84375 4.28125 -3.304688 4.75 -2.890625 C 5.21875 -2.472656 5.820312 -2.265625 6.5625 -2.265625 C 7.289062 -2.265625 7.890625 -2.472656 8.359375 -2.890625 C 8.835938 -3.304688 9.078125 -3.84375 9.078125 -4.5 L 9.078125 -12.34375 C 9.078125 -12.738281 9.445312 -12.9375 10.1875 -12.9375 L 10.796875 -12.9375 C 11.535156 -12.9375 11.90625 -12.738281 11.90625 -12.34375 L 11.90625 -4.3125 C 11.90625 -2.894531 11.4375 -1.796875 10.5 -1.015625 C 9.5625 -0.242188 8.25 0.140625 6.5625 0.140625 Z M 6.5625 0.140625 "/></g></g></g><g clip-path="url(#c1d99193ab)"><path fill="#ffbd59" d="M 168.546875 124.039062 C 181.640625 124.039062 193.128906 133.039062 199.621094 146.605469 L 199.621094 139.855469 C 190.898438 126.929688 177.097656 118.59375 161.582031 118.59375 C 135.242188 118.59375 113.875 142.640625 113.875 172.300781 C 113.875 201.960938 135.242188 226.007812 161.582031 226.007812 C 177.097656 226.007812 190.898438 217.671875 199.621094 204.746094 L 199.621094 197.996094 C 193.128906 211.5625 181.640625 220.5625 168.546875 220.5625 C 148.292969 220.5625 131.855469 198.960938 131.855469 172.300781 C 131.855469 145.640625 148.273438 124.039062 168.546875 124.039062 Z M 168.546875 124.039062 " fill-opacity="1" fill-rule="nonzero"/></g></svg>