<svg xmlns="http://www.w3.org/2000/svg" xmlns:xlink="http://www.w3.org/1999/xlink" width="50" zoomAndPan="magnify" viewBox="0 0 375 374.999991" height="50" preserveAspectRatio="xMidYMid meet" version="1.0"><defs><g/><clipPath id="486b97c835"><path d="M 96.855469 136 L 224.355469 136 L 224.355469 295.746094 L 96.855469 295.746094 Z M 96.855469 136 " clip-rule="nonzero"/></clipPath><clipPath id="71b2665b17"><path d="M 18.75 31.308594 L 189.75 31.308594 L 189.75 240.558594 L 18.75 240.558594 Z M 18.75 31.308594 " clip-rule="nonzero"/></clipPath><clipPath id="9353891314"><path d="M 96.855469 164.851562 L 224.355469 164.851562 L 224.355469 266.851562 L 96.855469 266.851562 Z M 96.855469 164.851562 " clip-rule="nonzero"/></clipPath></defs><g fill="#004aad" fill-opacity="1"><g transform="translate(67.262528, 336.39787)"><g><path d="M 10.234375 0.21875 C 7.171875 0.21875 4.90625 -0.578125 3.4375 -2.171875 C 1.96875 -3.773438 1.234375 -6.265625 1.234375 -9.640625 C 1.234375 -16.128906 4.28125 -19.375 10.375 -19.375 C 11.289062 -19.375 12.222656 -19.28125 13.171875 -19.09375 C 14.117188 -18.90625 14.859375 -18.65625 15.390625 -18.34375 C 15.859375 -18.070312 16.09375 -17.78125 16.09375 -17.46875 C 16.09375 -17.207031 15.992188 -16.867188 15.796875 -16.453125 C 15.597656 -16.046875 15.351562 -15.679688 15.0625 -15.359375 C 14.78125 -15.046875 14.53125 -14.890625 14.3125 -14.890625 C 14.257812 -14.890625 14.039062 -14.972656 13.65625 -15.140625 C 13.269531 -15.304688 12.800781 -15.453125 12.25 -15.578125 C 11.707031 -15.703125 11.054688 -15.765625 10.296875 -15.765625 C 8.691406 -15.765625 7.5 -15.253906 6.71875 -14.234375 C 5.945312 -13.210938 5.5625 -11.671875 5.5625 -9.609375 C 5.5625 -5.441406 7.117188 -3.359375 10.234375 -3.359375 C 11.054688 -3.359375 11.769531 -3.441406 12.375 -3.609375 C 12.976562 -3.773438 13.5625 -3.988281 14.125 -4.25 C 14.414062 -4.394531 14.617188 -4.46875 14.734375 -4.46875 C 15.003906 -4.46875 15.257812 -4.3125 15.5 -4 C 15.75 -3.6875 15.953125 -3.332031 16.109375 -2.9375 C 16.265625 -2.550781 16.34375 -2.265625 16.34375 -2.078125 C 16.34375 -1.609375 16.023438 -1.191406 15.390625 -0.828125 C 14.785156 -0.472656 13.988281 -0.207031 13 -0.03125 C 12.019531 0.132812 11.097656 0.21875 10.234375 0.21875 Z M 10.234375 0.21875 "/></g></g></g><g fill="#004aad" fill-opacity="1"><g transform="translate(84.198892, 336.39787)"><g><path d="M 12.734375 -22.90625 C 12.421875 -22.90625 12.09375 -22.984375 11.75 -23.140625 C 11.414062 -23.296875 11.25 -23.429688 11.25 -23.546875 C 11.25 -23.628906 11.328125 -23.738281 11.484375 -23.875 C 11.640625 -24.019531 11.796875 -24.148438 11.953125 -24.265625 C 12.109375 -24.390625 12.25 -24.492188 12.375 -24.578125 C 12.84375 -24.984375 13.078125 -25.320312 13.078125 -25.59375 C 13.078125 -25.78125 12.988281 -25.925781 12.8125 -26.03125 C 12.644531 -26.144531 12.441406 -26.203125 12.203125 -26.203125 C 11.972656 -26.203125 11.742188 -26.144531 11.515625 -26.03125 C 11.285156 -25.925781 11.132812 -25.875 11.0625 -25.875 C 10.945312 -25.875 10.78125 -26.015625 10.5625 -26.296875 C 10.34375 -26.578125 10.234375 -26.816406 10.234375 -27.015625 C 10.234375 -27.203125 10.476562 -27.390625 10.96875 -27.578125 C 11.46875 -27.773438 11.953125 -27.875 12.421875 -27.875 C 13.390625 -27.875 14.140625 -27.679688 14.671875 -27.296875 C 15.203125 -26.910156 15.46875 -26.378906 15.46875 -25.703125 C 15.46875 -25.160156 15.148438 -24.585938 14.515625 -23.984375 C 14.203125 -23.691406 13.863281 -23.4375 13.5 -23.21875 C 13.132812 -23.007812 12.878906 -22.90625 12.734375 -22.90625 Z M 5.203125 -20.5 C 4.835938 -20.5 4.65625 -20.59375 4.65625 -20.78125 C 4.65625 -20.882812 4.707031 -21.019531 4.8125 -21.1875 L 6.59375 -23.984375 C 6.738281 -24.203125 6.9375 -24.34375 7.1875 -24.40625 C 7.4375 -24.46875 7.796875 -24.5 8.265625 -24.5 L 8.5625 -24.5 C 9.039062 -24.5 9.398438 -24.46875 9.640625 -24.40625 C 9.890625 -24.34375 10.085938 -24.203125 10.234375 -23.984375 L 12.015625 -21.1875 C 12.128906 -21.019531 12.1875 -20.882812 12.1875 -20.78125 C 12.1875 -20.59375 12.003906 -20.5 11.640625 -20.5 L 11.03125 -20.5 C 10.082031 -20.5 9.460938 -20.71875 9.171875 -21.15625 L 8.40625 -22.25 L 7.640625 -21.1875 C 7.453125 -20.914062 7.207031 -20.734375 6.90625 -20.640625 C 6.601562 -20.546875 6.234375 -20.5 5.796875 -20.5 Z M 1.671875 0.0625 C 0.554688 0.0625 0 -0.140625 0 -0.546875 C 0 -0.617188 0.0351562 -0.785156 0.109375 -1.046875 L 6.125 -18.640625 C 6.269531 -19.023438 6.789062 -19.21875 7.6875 -19.21875 L 9.109375 -19.21875 C 10.023438 -19.21875 10.546875 -19.023438 10.671875 -18.640625 L 16.703125 -1.046875 C 16.753906 -0.859375 16.78125 -0.691406 16.78125 -0.546875 C 16.78125 -0.140625 16.320312 0.0625 15.40625 0.0625 L 14.203125 0.0625 C 13.304688 0.0625 12.796875 -0.128906 12.671875 -0.515625 L 11.578125 -3.859375 L 5.125 -3.859375 L 4.03125 -0.515625 C 3.894531 -0.128906 3.472656 0.0625 2.765625 0.0625 Z M 10.40625 -7.46875 L 8.84375 -12.34375 C 8.71875 -12.707031 8.582031 -13.289062 8.4375 -14.09375 L 8.328125 -14.09375 C 8.304688 -13.988281 8.265625 -13.75 8.203125 -13.375 C 8.140625 -13 8.039062 -12.65625 7.90625 -12.34375 L 6.296875 -7.46875 Z M 10.40625 -7.46875 "/></g></g></g><g fill="#004aad" fill-opacity="1"><g transform="translate(100.971094, 336.39787)"><g><path d="M 9.75 0.21875 C 7.226562 0.21875 5.273438 -0.359375 3.890625 -1.515625 C 2.503906 -2.671875 1.8125 -4.300781 1.8125 -6.40625 L 1.8125 -18.34375 C 1.8125 -18.925781 2.359375 -19.21875 3.453125 -19.21875 L 4.375 -19.21875 C 5.46875 -19.21875 6.015625 -18.925781 6.015625 -18.34375 L 6.015625 -6.671875 C 6.015625 -5.710938 6.363281 -4.921875 7.0625 -4.296875 C 7.757812 -3.671875 8.65625 -3.359375 9.75 -3.359375 C 10.84375 -3.359375 11.738281 -3.671875 12.4375 -4.296875 C 13.144531 -4.921875 13.5 -5.710938 13.5 -6.671875 L 13.5 -18.34375 C 13.5 -18.925781 14.046875 -19.21875 15.140625 -19.21875 L 16.046875 -19.21875 C 17.140625 -19.21875 17.6875 -18.925781 17.6875 -18.34375 L 17.6875 -6.40625 C 17.6875 -4.300781 16.988281 -2.671875 15.59375 -1.515625 C 14.207031 -0.359375 12.257812 0.21875 9.75 0.21875 Z M 9.75 0.21875 "/></g></g></g><g fill="#004aad" fill-opacity="1"><g transform="translate(120.452028, 336.39787)"><g/></g></g><g fill="#004aad" fill-opacity="1"><g transform="translate(127.018637, 336.39787)"><g><path d="M 7.03125 0.0625 C 5.9375 0.0625 5.390625 -0.234375 5.390625 -0.828125 L 5.390625 -15.578125 L 1.046875 -15.578125 C 0.753906 -15.578125 0.539062 -15.6875 0.40625 -15.90625 C 0.28125 -16.125 0.21875 -16.46875 0.21875 -16.9375 L 0.21875 -17.796875 C 0.21875 -18.265625 0.28125 -18.609375 0.40625 -18.828125 C 0.539062 -19.046875 0.753906 -19.15625 1.046875 -19.15625 L 13.984375 -19.15625 C 14.273438 -19.15625 14.484375 -19.046875 14.609375 -18.828125 C 14.742188 -18.609375 14.8125 -18.265625 14.8125 -17.796875 L 14.8125 -16.9375 C 14.8125 -16.46875 14.742188 -16.125 14.609375 -15.90625 C 14.484375 -15.6875 14.273438 -15.578125 13.984375 -15.578125 L 9.640625 -15.578125 L 9.640625 -0.828125 C 9.640625 -0.234375 9.09375 0.0625 8 0.0625 Z M 7.03125 0.0625 "/></g></g></g><g fill="#004aad" fill-opacity="1"><g transform="translate(142.039745, 336.39787)"><g><path d="M 3.53125 0.0625 C 2.4375 0.0625 1.890625 -0.234375 1.890625 -0.828125 L 1.890625 -18.0625 C 1.890625 -18.445312 1.972656 -18.722656 2.140625 -18.890625 C 2.316406 -19.066406 2.597656 -19.15625 2.984375 -19.15625 L 8.328125 -19.15625 C 12.867188 -19.15625 15.140625 -17.441406 15.140625 -14.015625 C 15.140625 -12.992188 14.847656 -12.101562 14.265625 -11.34375 C 13.691406 -10.582031 12.914062 -10.019531 11.9375 -9.65625 L 11.9375 -9.546875 C 12.28125 -9.421875 12.632812 -9.113281 13 -8.625 C 13.363281 -8.144531 13.664062 -7.613281 13.90625 -7.03125 L 16.3125 -1.015625 C 16.40625 -0.773438 16.453125 -0.601562 16.453125 -0.5 C 16.453125 -0.332031 16.3125 -0.195312 16.03125 -0.09375 C 15.757812 0.0078125 15.351562 0.0625 14.8125 0.0625 L 13.6875 0.0625 C 12.789062 0.0625 12.257812 -0.128906 12.09375 -0.515625 L 9.9375 -5.859375 C 9.625 -6.460938 9.289062 -6.882812 8.9375 -7.125 C 8.582031 -7.375 7.992188 -7.5 7.171875 -7.5 L 6.109375 -7.5 L 6.109375 -0.828125 C 6.109375 -0.234375 5.5625 0.0625 4.46875 0.0625 Z M 8.703125 -11.140625 C 9.265625 -11.140625 9.753906 -11.367188 10.171875 -11.828125 C 10.597656 -12.285156 10.8125 -12.84375 10.8125 -13.5 C 10.8125 -14.132812 10.601562 -14.640625 10.1875 -15.015625 C 9.78125 -15.390625 9.222656 -15.578125 8.515625 -15.578125 L 6.109375 -15.578125 L 6.109375 -11.140625 Z M 8.703125 -11.140625 "/></g></g></g><g fill="#004aad" fill-opacity="1"><g transform="translate(158.729867, 336.39787)"><g><path d="M 9.75 0.21875 C 7.226562 0.21875 5.273438 -0.359375 3.890625 -1.515625 C 2.503906 -2.671875 1.8125 -4.300781 1.8125 -6.40625 L 1.8125 -18.34375 C 1.8125 -18.925781 2.359375 -19.21875 3.453125 -19.21875 L 4.375 -19.21875 C 5.46875 -19.21875 6.015625 -18.925781 6.015625 -18.34375 L 6.015625 -6.671875 C 6.015625 -5.710938 6.363281 -4.921875 7.0625 -4.296875 C 7.757812 -3.671875 8.65625 -3.359375 9.75 -3.359375 C 10.84375 -3.359375 11.738281 -3.671875 12.4375 -4.296875 C 13.144531 -4.921875 13.5 -5.710938 13.5 -6.671875 L 13.5 -18.34375 C 13.5 -18.925781 14.046875 -19.21875 15.140625 -19.21875 L 16.046875 -19.21875 C 17.140625 -19.21875 17.6875 -18.925781 17.6875 -18.34375 L 17.6875 -6.40625 C 17.6875 -4.300781 16.988281 -2.671875 15.59375 -1.515625 C 14.207031 -0.359375 12.257812 0.21875 9.75 0.21875 Z M 9.796875 5.578125 C 8.703125 5.578125 8.15625 5.285156 8.15625 4.703125 L 8.15625 3.0625 C 8.15625 2.476562 8.703125 2.1875 9.796875 2.1875 C 10.890625 2.1875 11.4375 2.476562 11.4375 3.0625 L 11.4375 4.703125 C 11.4375 5.285156 10.890625 5.578125 9.796875 5.578125 Z M 9.796875 5.578125 "/></g></g></g><g fill="#004aad" fill-opacity="1"><g transform="translate(178.2108, 336.39787)"><g><path d="M 10.234375 0.21875 C 7.171875 0.21875 4.90625 -0.578125 3.4375 -2.171875 C 1.96875 -3.773438 1.234375 -6.265625 1.234375 -9.640625 C 1.234375 -16.128906 4.28125 -19.375 10.375 -19.375 C 11.289062 -19.375 12.222656 -19.28125 13.171875 -19.09375 C 14.117188 -18.90625 14.859375 -18.65625 15.390625 -18.34375 C 15.859375 -18.070312 16.09375 -17.78125 16.09375 -17.46875 C 16.09375 -17.207031 15.992188 -16.867188 15.796875 -16.453125 C 15.597656 -16.046875 15.351562 -15.679688 15.0625 -15.359375 C 14.78125 -15.046875 14.53125 -14.890625 14.3125 -14.890625 C 14.257812 -14.890625 14.039062 -14.972656 13.65625 -15.140625 C 13.269531 -15.304688 12.800781 -15.453125 12.25 -15.578125 C 11.707031 -15.703125 11.054688 -15.765625 10.296875 -15.765625 C 8.691406 -15.765625 7.5 -15.253906 6.71875 -14.234375 C 5.945312 -13.210938 5.5625 -11.671875 5.5625 -9.609375 C 5.5625 -5.441406 7.117188 -3.359375 10.234375 -3.359375 C 11.054688 -3.359375 11.769531 -3.441406 12.375 -3.609375 C 12.976562 -3.773438 13.5625 -3.988281 14.125 -4.25 C 14.414062 -4.394531 14.617188 -4.46875 14.734375 -4.46875 C 15.003906 -4.46875 15.257812 -4.3125 15.5 -4 C 15.75 -3.6875 15.953125 -3.332031 16.109375 -2.9375 C 16.265625 -2.550781 16.34375 -2.265625 16.34375 -2.078125 C 16.34375 -1.609375 16.023438 -1.191406 15.390625 -0.828125 C 14.785156 -0.472656 13.988281 -0.207031 13 -0.03125 C 12.019531 0.132812 11.097656 0.21875 10.234375 0.21875 Z M 10.234375 0.21875 "/></g></g></g><g fill="#004aad" fill-opacity="1"><g transform="translate(195.147164, 336.39787)"><g/></g></g><g fill="#004aad" fill-opacity="1"><g transform="translate(201.713773, 336.39787)"><g><path d="M 3.171875 0 C 2.785156 0 2.503906 -0.0820312 2.328125 -0.25 C 2.160156 -0.425781 2.078125 -0.707031 2.078125 -1.09375 L 2.078125 -18.0625 C 2.078125 -18.445312 2.160156 -18.722656 2.328125 -18.890625 C 2.503906 -19.066406 2.785156 -19.15625 3.171875 -19.15625 L 8.59375 -19.15625 C 10.820312 -19.15625 12.457031 -18.726562 13.5 -17.875 C 14.539062 -17.019531 15.0625 -15.832031 15.0625 -14.3125 C 15.0625 -13.40625 14.78125 -12.570312 14.21875 -11.8125 C 13.664062 -11.050781 12.957031 -10.5 12.09375 -10.15625 L 12.125 -10.046875 C 13.207031 -9.828125 14.09375 -9.285156 14.78125 -8.421875 C 15.476562 -7.566406 15.828125 -6.613281 15.828125 -5.5625 C 15.828125 -3.769531 15.253906 -2.394531 14.109375 -1.4375 C 12.972656 -0.476562 11.265625 0 8.984375 0 Z M 8.1875 -11.53125 C 8.988281 -11.53125 9.613281 -11.71875 10.0625 -12.09375 C 10.507812 -12.476562 10.734375 -12.972656 10.734375 -13.578125 C 10.734375 -14.929688 9.898438 -15.609375 8.234375 -15.609375 L 6.296875 -15.609375 L 6.296875 -11.53125 Z M 8.984375 -3.59375 C 9.785156 -3.59375 10.40625 -3.78125 10.84375 -4.15625 C 11.28125 -4.539062 11.5 -5.085938 11.5 -5.796875 C 11.5 -6.515625 11.242188 -7.050781 10.734375 -7.40625 C 10.222656 -7.757812 9.492188 -7.9375 8.546875 -7.9375 L 6.296875 -7.9375 L 6.296875 -3.59375 Z M 8.984375 -3.59375 "/></g></g></g><g fill="#004aad" fill-opacity="1"><g transform="translate(217.93876, 336.39787)"><g><path d="M 3.390625 0.078125 C 2.296875 0.078125 1.75 -0.222656 1.75 -0.828125 L 1.75 -18.34375 C 1.75 -18.945312 2.296875 -19.25 3.390625 -19.25 L 4.359375 -19.25 C 5.453125 -19.25 6 -18.945312 6 -18.34375 L 6 -0.828125 C 6 -0.222656 5.453125 0.078125 4.359375 0.078125 Z M 4.546875 -20.578125 C 3.953125 -20.578125 3.503906 -20.640625 3.203125 -20.765625 C 2.910156 -20.898438 2.671875 -21.066406 2.484375 -21.265625 C 2.191406 -21.597656 1.582031 -22.253906 0.65625 -23.234375 C 0.195312 -23.734375 -0.0820312 -24.050781 -0.1875 -24.1875 C -0.300781 -24.320312 -0.359375 -24.441406 -0.359375 -24.546875 C -0.359375 -24.691406 -0.226562 -24.789062 0.03125 -24.84375 C 0.300781 -24.90625 0.71875 -24.9375 1.28125 -24.9375 C 2.5625 -24.9375 3.335938 -24.691406 3.609375 -24.203125 C 3.640625 -24.128906 4.015625 -23.488281 4.734375 -22.28125 C 4.929688 -21.945312 5.085938 -21.671875 5.203125 -21.453125 C 5.328125 -21.234375 5.390625 -21.082031 5.390625 -21 C 5.390625 -20.851562 5.328125 -20.742188 5.203125 -20.671875 C 5.085938 -20.609375 4.867188 -20.578125 4.546875 -20.578125 Z M 4.546875 -20.578125 "/></g></g></g><g fill="#004aad" fill-opacity="1"><g transform="translate(225.681881, 336.39787)"><g><path d="M 3.53125 0.0625 C 2.4375 0.0625 1.890625 -0.234375 1.890625 -0.828125 L 1.890625 -18.34375 C 1.890625 -18.925781 2.4375 -19.21875 3.53125 -19.21875 L 4.703125 -19.21875 C 5.140625 -19.21875 5.503906 -19.164062 5.796875 -19.0625 C 6.085938 -18.96875 6.328125 -18.773438 6.515625 -18.484375 L 12.671875 -8.984375 C 13.035156 -8.453125 13.363281 -7.910156 13.65625 -7.359375 L 13.765625 -7.390625 C 13.734375 -7.804688 13.71875 -8.425781 13.71875 -9.25 L 13.71875 -18.34375 C 13.71875 -18.925781 14.265625 -19.21875 15.359375 -19.21875 L 16.15625 -19.21875 C 17.25 -19.21875 17.796875 -18.925781 17.796875 -18.34375 L 17.796875 -0.828125 C 17.796875 -0.234375 17.25 0.0625 16.15625 0.0625 L 15.109375 0.0625 C 14.671875 0.0625 14.304688 0.0078125 14.015625 -0.09375 C 13.722656 -0.195312 13.484375 -0.394531 13.296875 -0.6875 L 7.015625 -10.328125 C 6.640625 -10.847656 6.304688 -11.382812 6.015625 -11.9375 L 5.90625 -11.90625 C 5.945312 -11.488281 5.96875 -10.867188 5.96875 -10.046875 L 5.96875 -0.828125 C 5.96875 -0.234375 5.421875 0.0625 4.328125 0.0625 Z M 3.53125 0.0625 "/></g></g></g><g fill="#004aad" fill-opacity="1"><g transform="translate(245.354342, 336.39787)"><g><path d="M 3.71875 0.0625 C 2.625 0.0625 2.078125 -0.234375 2.078125 -0.828125 L 2.078125 -18.34375 C 2.078125 -18.925781 2.625 -19.21875 3.71875 -19.21875 L 4.6875 -19.21875 C 5.78125 -19.21875 6.328125 -18.925781 6.328125 -18.34375 L 6.328125 -11.578125 L 13.71875 -11.578125 L 13.71875 -18.34375 C 13.71875 -18.925781 14.265625 -19.21875 15.359375 -19.21875 L 16.3125 -19.21875 C 17.40625 -19.21875 17.953125 -18.925781 17.953125 -18.34375 L 17.953125 -0.828125 C 17.953125 -0.234375 17.40625 0.0625 16.3125 0.0625 L 15.359375 0.0625 C 14.265625 0.0625 13.71875 -0.234375 13.71875 -0.828125 L 13.71875 -7.96875 L 6.328125 -7.96875 L 6.328125 -0.828125 C 6.328125 -0.234375 5.78125 0.0625 4.6875 0.0625 Z M 3.71875 0.0625 "/></g></g></g><g fill="#004aad" fill-opacity="1"><g transform="translate(265.409841, 336.39787)"><g/></g></g><g fill="#004aad" fill-opacity="1"><g transform="translate(271.97645, 336.39787)"><g><path d="M 10.234375 0.21875 C 7.171875 0.21875 4.90625 -0.578125 3.4375 -2.171875 C 1.96875 -3.773438 1.234375 -6.265625 1.234375 -9.640625 C 1.234375 -16.128906 4.28125 -19.375 10.375 -19.375 C 11.289062 -19.375 12.222656 -19.28125 13.171875 -19.09375 C 14.117188 -18.90625 14.859375 -18.65625 15.390625 -18.34375 C 15.859375 -18.070312 16.09375 -17.78125 16.09375 -17.46875 C 16.09375 -17.207031 15.992188 -16.867188 15.796875 -16.453125 C 15.597656 -16.046875 15.351562 -15.679688 15.0625 -15.359375 C 14.78125 -15.046875 14.53125 -14.890625 14.3125 -14.890625 C 14.257812 -14.890625 14.039062 -14.972656 13.65625 -15.140625 C 13.269531 -15.304688 12.800781 -15.453125 12.25 -15.578125 C 11.707031 -15.703125 11.054688 -15.765625 10.296875 -15.765625 C 8.691406 -15.765625 7.5 -15.253906 6.71875 -14.234375 C 5.945312 -13.210938 5.5625 -11.671875 5.5625 -9.609375 C 5.5625 -5.441406 7.117188 -3.359375 10.234375 -3.359375 C 11.054688 -3.359375 11.769531 -3.441406 12.375 -3.609375 C 12.976562 -3.773438 13.5625 -3.988281 14.125 -4.25 C 14.414062 -4.394531 14.617188 -4.46875 14.734375 -4.46875 C 15.003906 -4.46875 15.257812 -4.3125 15.5 -4 C 15.75 -3.6875 15.953125 -3.332031 16.109375 -2.9375 C 16.265625 -2.550781 16.34375 -2.265625 16.34375 -2.078125 C 16.34375 -1.609375 16.023438 -1.191406 15.390625 -0.828125 C 14.785156 -0.472656 13.988281 -0.207031 13 -0.03125 C 12.019531 0.132812 11.097656 0.21875 10.234375 0.21875 Z M 10.234375 0.21875 "/></g></g></g><g fill="#004aad" fill-opacity="1"><g transform="translate(288.912814, 336.39787)"><g><path d="M 3.71875 0.0625 C 2.625 0.0625 2.078125 -0.234375 2.078125 -0.828125 L 2.078125 -18.34375 C 2.078125 -18.925781 2.625 -19.21875 3.71875 -19.21875 L 4.6875 -19.21875 C 5.78125 -19.21875 6.328125 -18.925781 6.328125 -18.34375 L 6.328125 -11.578125 L 13.71875 -11.578125 L 13.71875 -18.34375 C 13.71875 -18.925781 14.265625 -19.21875 15.359375 -19.21875 L 16.3125 -19.21875 C 17.40625 -19.21875 17.953125 -18.925781 17.953125 -18.34375 L 17.953125 -0.828125 C 17.953125 -0.234375 17.40625 0.0625 16.3125 0.0625 L 15.359375 0.0625 C 14.265625 0.0625 13.71875 -0.234375 13.71875 -0.828125 L 13.71875 -7.96875 L 6.328125 -7.96875 L 6.328125 -0.828125 C 6.328125 -0.234375 5.78125 0.0625 4.6875 0.0625 Z M 3.71875 0.0625 "/></g></g></g><g fill="#004aad" fill-opacity="1"><g transform="translate(308.968313, 336.39787)"><g><path d="M 1.671875 0.0625 C 0.554688 0.0625 0 -0.140625 0 -0.546875 C 0 -0.617188 0.0351562 -0.785156 0.109375 -1.046875 L 6.125 -18.640625 C 6.269531 -19.023438 6.789062 -19.21875 7.6875 -19.21875 L 9.109375 -19.21875 C 10.023438 -19.21875 10.546875 -19.023438 10.671875 -18.640625 L 16.703125 -1.046875 C 16.753906 -0.859375 16.78125 -0.691406 16.78125 -0.546875 C 16.78125 -0.140625 16.320312 0.0625 15.40625 0.0625 L 14.203125 0.0625 C 13.304688 0.0625 12.796875 -0.128906 12.671875 -0.515625 L 11.578125 -3.859375 L 5.125 -3.859375 L 4.03125 -0.515625 C 3.894531 -0.128906 3.472656 0.0625 2.765625 0.0625 Z M 10.40625 -7.46875 L 8.84375 -12.34375 C 8.71875 -12.707031 8.582031 -13.289062 8.4375 -14.09375 L 8.328125 -14.09375 C 8.304688 -13.988281 8.265625 -13.75 8.203125 -13.375 C 8.140625 -13 8.039062 -12.65625 7.90625 -12.34375 L 6.296875 -7.46875 Z M 5.1875 -20.5 C 4.8125 -20.5 4.625 -20.59375 4.625 -20.78125 C 4.625 -20.882812 4.679688 -21.019531 4.796875 -21.1875 L 6.578125 -23.984375 C 6.722656 -24.203125 6.914062 -24.34375 7.15625 -24.40625 C 7.40625 -24.46875 7.769531 -24.5 8.25 -24.5 L 8.546875 -24.5 C 9.023438 -24.5 9.382812 -24.46875 9.625 -24.40625 C 9.875 -24.34375 10.070312 -24.203125 10.21875 -23.984375 L 12 -21.1875 C 12.101562 -21.019531 12.15625 -20.882812 12.15625 -20.78125 C 12.15625 -20.59375 11.972656 -20.5 11.609375 -20.5 L 11.015625 -20.5 C 10.066406 -20.5 9.445312 -20.71875 9.15625 -21.15625 L 8.390625 -22.25 L 7.609375 -21.1875 C 7.429688 -20.914062 7.191406 -20.734375 6.890625 -20.640625 C 6.585938 -20.546875 6.21875 -20.5 5.78125 -20.5 Z M 5.1875 -20.5 "/></g></g></g><g fill="#004aad" fill-opacity="1"><g transform="translate(325.740515, 336.39787)"><g><path d="M 9.75 0.21875 C 7.226562 0.21875 5.273438 -0.359375 3.890625 -1.515625 C 2.503906 -2.671875 1.8125 -4.300781 1.8125 -6.40625 L 1.8125 -18.34375 C 1.8125 -18.925781 2.359375 -19.21875 3.453125 -19.21875 L 4.375 -19.21875 C 5.46875 -19.21875 6.015625 -18.925781 6.015625 -18.34375 L 6.015625 -6.671875 C 6.015625 -5.710938 6.363281 -4.921875 7.0625 -4.296875 C 7.757812 -3.671875 8.65625 -3.359375 9.75 -3.359375 C 10.84375 -3.359375 11.738281 -3.671875 12.4375 -4.296875 C 13.144531 -4.921875 13.5 -5.710938 13.5 -6.671875 L 13.5 -18.34375 C 13.5 -18.925781 14.046875 -19.21875 15.140625 -19.21875 L 16.046875 -19.21875 C 17.140625 -19.21875 17.6875 -18.925781 17.6875 -18.34375 L 17.6875 -6.40625 C 17.6875 -4.300781 16.988281 -2.671875 15.59375 -1.515625 C 14.207031 -0.359375 12.257812 0.21875 9.75 0.21875 Z M 9.75 0.21875 "/></g></g></g><g fill="#ffbd59" fill-opacity="1"><g transform="translate(202.120559, 230.321069)"><g><path d="M 1.234375 -1.96875 L 4.046875 -2.640625 L 4.046875 -20.140625 L 1.234375 -20.796875 L 1.234375 -22.765625 L 11.140625 -22.765625 C 14.117188 -22.765625 16.304688 -22.296875 17.703125 -21.359375 C 19.109375 -20.421875 19.8125 -18.75 19.8125 -16.34375 C 19.8125 -14.820312 19.40625 -13.53125 18.59375 -12.46875 C 17.789062 -11.414062 16.65625 -10.617188 15.1875 -10.078125 L 19.53125 -2.5625 L 22.140625 -1.96875 L 22.140625 0 L 16.875 0 C 16.332031 0 15.90625 -0.078125 15.59375 -0.234375 C 15.289062 -0.398438 15.023438 -0.707031 14.796875 -1.15625 L 10.5 -9.28125 L 9.03125 -9.28125 L 9.03125 -2.640625 L 11.84375 -1.96875 L 11.84375 0 L 1.234375 0 Z M 10.078125 -11.953125 C 11.535156 -11.953125 12.648438 -12.316406 13.421875 -13.046875 C 14.191406 -13.785156 14.578125 -14.882812 14.578125 -16.34375 C 14.578125 -17.675781 14.3125 -18.632812 13.78125 -19.21875 C 13.257812 -19.800781 12.273438 -20.09375 10.828125 -20.09375 C 10.046875 -20.09375 9.445312 -20.046875 9.03125 -19.953125 L 9.03125 -11.953125 Z M 10.078125 -11.953125 "/></g></g></g><g fill="#ffbd59" fill-opacity="1"><g transform="translate(233.949757, 230.321069)"><g><path d="M -0.28125 -2.171875 L 2.03125 -2.59375 L 9.09375 -23.015625 L 13.359375 -23.015625 L 20.984375 -2.59375 L 23.40625 -2.140625 L 23.40625 0 L 12.609375 0 L 12.609375 -2.171875 L 15.390625 -2.59375 L 14.203125 -6.328125 L 7.0625 -6.328125 L 6.046875 -3.296875 L 5.796875 -2.5625 L 8.71875 -2.171875 L 8.71875 0 L -0.28125 0 Z M 13.359375 -9.140625 L 10.890625 -16.59375 L 10.78125 -17.4375 L 10.609375 -17.4375 L 10.5 -16.59375 L 8.015625 -9.140625 Z M 13.359375 -9.140625 "/></g></g></g><g fill="#ffbd59" fill-opacity="1"><g transform="translate(266.692285, 230.321069)"><g><path d="M 1.234375 0 L 1.234375 -1.96875 L 4.046875 -2.640625 L 4.046875 -20.171875 L 1.71875 -20.625 L 1.71875 -22.765625 L 9.09375 -22.765625 L 18.34375 -8.1875 L 18.484375 -7.65625 L 18.625 -7.65625 L 18.625 -20.140625 L 15.8125 -20.765625 L 15.8125 -22.765625 L 24.921875 -22.765625 L 24.921875 -20.765625 L 22.109375 -20.140625 L 22.109375 0 L 17.78125 0 L 7.796875 -15.1875 L 7.65625 -15.703125 L 7.515625 -15.703125 L 7.515625 -2.640625 L 10.328125 -1.96875 L 10.328125 0 Z M 1.234375 0 "/></g></g></g><g fill="#ffbd59" fill-opacity="1"><g transform="translate(302.104579, 230.321069)"><g><path d="M 1.234375 -1.96875 L 4.046875 -2.640625 L 4.046875 -20.140625 L 1.234375 -20.796875 L 1.234375 -22.765625 L 18.6875 -22.765625 L 18.6875 -16.171875 L 16.3125 -16.171875 L 15.421875 -20.09375 L 10.578125 -20.09375 L 9.03125 -19.859375 L 9.03125 -12.859375 L 12.609375 -12.859375 L 13.390625 -15.28125 L 15.25 -15.28125 L 15.25 -7.515625 L 13.390625 -7.515625 L 12.609375 -10.1875 L 9.03125 -10.1875 L 9.03125 -2.671875 L 15.78125 -2.671875 L 16.6875 -6.921875 L 19.015625 -6.921875 L 19.015625 0 L 1.234375 0 Z M 1.234375 -1.96875 "/></g></g></g><g fill="#ffbd59" fill-opacity="1"><g transform="translate(332.317862, 230.321069)"><g><path d="M 8.859375 0.59375 C 7.117188 0.59375 5.597656 0.398438 4.296875 0.015625 C 3.003906 -0.367188 2.03125 -0.757812 1.375 -1.15625 L 1.375 -7.421875 L 3.828125 -7.421875 L 4.5625 -3.796875 C 5.007812 -3.347656 5.628906 -2.984375 6.421875 -2.703125 C 7.222656 -2.421875 8 -2.28125 8.75 -2.28125 C 10.25 -2.28125 11.328125 -2.5625 11.984375 -3.125 C 12.640625 -3.6875 12.96875 -4.425781 12.96875 -5.34375 C 12.96875 -5.925781 12.875 -6.382812 12.6875 -6.71875 C 12.5 -7.0625 12.101562 -7.410156 11.5 -7.765625 C 10.90625 -8.117188 9.921875 -8.597656 8.546875 -9.203125 L 7.515625 -9.625 C 6.179688 -10.1875 5.101562 -10.710938 4.28125 -11.203125 C 3.46875 -11.703125 2.78125 -12.394531 2.21875 -13.28125 C 1.65625 -14.175781 1.375 -15.3125 1.375 -16.6875 C 1.375 -18 1.707031 -19.164062 2.375 -20.1875 C 3.039062 -21.207031 4 -22 5.25 -22.5625 C 6.507812 -23.125 7.96875 -23.40625 9.625 -23.40625 C 10.820312 -23.40625 12.054688 -23.3125 13.328125 -23.125 C 14.609375 -22.9375 15.625 -22.738281 16.375 -22.53125 L 16.375 -16.125 L 13.953125 -16.125 L 13.21875 -19.78125 C 12.132812 -20.226562 10.984375 -20.453125 9.765625 -20.453125 C 8.359375 -20.453125 7.375 -20.222656 6.8125 -19.765625 C 6.25 -19.304688 5.96875 -18.585938 5.96875 -17.609375 C 5.96875 -17.066406 6.109375 -16.613281 6.390625 -16.25 C 6.671875 -15.882812 7.035156 -15.59375 7.484375 -15.375 C 7.929688 -15.15625 8.585938 -14.867188 9.453125 -14.515625 C 9.617188 -14.460938 9.863281 -14.367188 10.1875 -14.234375 C 11.78125 -13.597656 13.070312 -12.976562 14.0625 -12.375 C 15.0625 -11.78125 15.863281 -11.03125 16.46875 -10.125 C 17.082031 -9.226562 17.390625 -8.140625 17.390625 -6.859375 C 17.390625 -4.203125 16.5625 -2.296875 14.90625 -1.140625 C 13.257812 0.015625 11.242188 0.59375 8.859375 0.59375 Z M 8.859375 0.59375 "/></g></g></g><g clip-path="url(#486b97c835)"><path fill="#ffbd59" d="M 178.113281 144.097656 C 197.574219 144.097656 214.648438 157.476562 224.296875 177.640625 L 224.296875 167.605469 C 211.335938 148.398438 190.820312 136.007812 167.761719 136.007812 C 128.613281 136.007812 96.855469 171.746094 96.855469 215.832031 C 96.855469 259.914062 128.613281 295.652344 167.761719 295.652344 C 190.820312 295.652344 211.335938 283.261719 224.296875 264.054688 L 224.296875 254.023438 C 214.648438 274.183594 197.574219 287.5625 178.113281 287.5625 C 148.011719 287.5625 123.582031 255.457031 123.582031 215.832031 C 123.582031 176.207031 147.980469 144.097656 178.113281 144.097656 Z M 178.113281 144.097656 " fill-opacity="1" fill-rule="nonzero"/></g><g clip-path="url(#71b2665b17)"><path fill="#004aad" d="M 132.511719 125.65625 L 121.109375 125.65625 C 147.167969 125.65625 168.261719 104.523438 168.261719 78.503906 C 168.261719 52.441406 147.167969 31.308594 121.109375 31.308594 L 18.785156 31.308594 L 18.785156 36.988281 L 40 36.988281 L 40 233.742188 L 18.785156 233.742188 L 18.785156 240.675781 L 132.511719 240.675781 C 164.25 240.675781 190.019531 214.949219 190.019531 183.164062 C 189.976562 151.382812 164.25 125.65625 132.511719 125.65625 Z M 72.910156 36.988281 L 97.511719 36.988281 C 120.441406 36.988281 139.027344 55.574219 139.027344 78.503906 C 139.027344 101.433594 120.441406 120.015625 97.511719 120.015625 L 72.910156 120.015625 Z M 106.992188 233.742188 L 72.910156 233.742188 L 72.910156 132.546875 L 106.992188 132.546875 C 134.933594 132.546875 157.570312 155.226562 157.570312 183.164062 C 157.570312 211.105469 134.933594 233.742188 106.992188 233.742188 Z M 106.992188 233.742188 " fill-opacity="1" fill-rule="nonzero"/></g><g clip-path="url(#9353891314)"><path fill="#ffbd59" d="M 178.113281 144.097656 C 197.574219 144.097656 214.648438 157.476562 224.296875 177.640625 L 224.296875 167.605469 C 211.335938 148.398438 190.820312 136.007812 167.761719 136.007812 C 128.613281 136.007812 96.855469 171.746094 96.855469 215.832031 C 96.855469 259.914062 128.613281 295.652344 167.761719 295.652344 C 190.820312 295.652344 211.335938 283.261719 224.296875 264.054688 L 224.296875 254.023438 C 214.648438 274.183594 197.574219 287.5625 178.113281 287.5625 C 148.011719 287.5625 123.582031 255.457031 123.582031 215.832031 C 123.582031 176.207031 147.980469 144.097656 178.113281 144.097656 Z M 178.113281 144.097656 " fill-opacity="1" fill-rule="nonzero"/></g></svg>